<svg xmlns="http://www.w3.org/2000/svg" x="0px" y="0px"
width="100" height="100"
viewBox="0 0 192 192"
style=" fill:#000000;"><g fill="none" fill-rule="nonzero" stroke="none" stroke-width="1" stroke-linecap="butt" stroke-linejoin="miter" stroke-miterlimit="10" stroke-dasharray="" stroke-dashoffset="0" font-family="none" font-weight="none" font-size="none" text-anchor="none" style="mix-blend-mode: normal"><path d="M0,192v-192h192v192z" fill="none"></path><g fill="#98ccfd"><g id="surface1"><path d="M81.72,7.68c-13.725,0.255 -23.85,4.515 -30,12.72c-7.275,9.69 -8.655,24.69 -3.96,43.44c-1.665,2.1 -2.775,5.31 -2.28,9.48c0.975,8.31 4.14,11.685 6.84,13.08c1.305,6.675 4.92,14.25 8.4,17.64c0.66,5.46 0.42,8.145 -0.48,12.84c-2.175,5.4 -9.81,8.475 -18.6,12c-14.535,5.82 -32.61,13.035 -33.96,36l-0.24,4.08h98.64c7.98,13.755 22.83,23.04 39.84,23.04c25.41,0 46.08,-20.67 46.08,-46.08c0,-24.675 -19.53,-44.82 -43.92,-45.96c-0.39,-2.775 -0.39,-5.535 0,-8.04c3.165,-3.045 6.075,-9.63 7.2,-15.24c2.415,-1.335 5.145,-4.47 6,-11.64c0.42,-3.585 -0.645,-6.375 -2.04,-8.28c2.445,-8.88 4.635,-24.99 -1.68,-34.92c-2.715,-4.275 -6.81,-7.005 -11.88,-8.04c-3.18,-3.93 -9.135,-6.12 -17.04,-6.12c-6.345,0.12 -11.775,1.275 -16.32,3.36c3.45,2.16 6.465,5.025 8.76,8.64c8.925,14.025 5.595,34.44 3.6,43.08c1.605,3.42 2.16,7.425 1.68,11.52c-1.035,8.85 -4.335,13.905 -7.68,16.8c-1.485,5.535 -4.23,11.97 -7.8,16.44c-0.135,2.175 0.03,4.575 0.48,6.84c0.105,0.15 0.36,0.36 0.6,0.6c-1.725,1.89 -3.285,3.84 -4.68,6c-1.515,-1.305 -2.655,-2.58 -3.24,-4.08c-0.975,-4.245 -1.11,-8.835 -0.48,-12.72c3.615,-3.375 7.14,-11.235 8.4,-17.76c2.7,-1.395 5.865,-4.785 6.84,-13.08c0.495,-4.125 -0.765,-7.26 -2.4,-9.36c2.82,-10.11 5.46,-28.785 -1.8,-40.2c-3.135,-4.935 -7.695,-7.995 -13.56,-9.12c-3.54,-4.515 -10.275,-6.96 -19.32,-6.96zM145.92,107.52c21.255,0 38.4,17.145 38.4,38.4c0,21.255 -17.145,38.4 -38.4,38.4c-21.255,0 -38.4,-17.145 -38.4,-38.4c0,-21.255 17.145,-38.4 38.4,-38.4zM142.08,122.88v19.2h-19.2v7.68h19.2v19.2h7.68v-19.2h19.2v-7.68h-19.2v-19.2z"></path></g></g></g></svg>